<svg width="504" height="198" viewBox="0 0 504 198" fill="none" xmlns="http://www.w3.org/2000/svg">
<rect x="150" width="181" height="22" rx="11" fill="#0A2F5E"/>
<path fill-rule="evenodd" clip-rule="evenodd" d="M243 132H390C383.925 132 379 127.075 379 121C379 114.925 383.925 110 390 110H243C249.075 110 254 114.925 254 121C254 127.075 249.075 132 243 132Z" fill="#0A2F5E"/>
<rect x="331" y="176" width="59" height="22" rx="11" fill="#0A2F5E"/>
<rect x="105" width="22" height="22" rx="11" fill="#0A2F5E"/>
<rect x="38" y="176" width="252" height="22" rx="11" fill="#0A2F5E"/>
<path fill-rule="evenodd" clip-rule="evenodd" d="M260 176H193C199.075 176 204 171.075 204 165C204 158.925 199.075 154 193 154H260C253.925 154 249 158.925 249 165C249 171.075 253.925 176 260 176Z" fill="#0A2F5E"/>
<rect x="150" y="132" width="354" height="22" rx="11" fill="#0A2F5E"/>
<path fill-rule="evenodd" clip-rule="evenodd" d="M193 43.9999H276C269.925 43.9999 265 39.075 265 32.9999C265 26.9247 269.925 21.9999 276 21.9999H193C199.075 21.9999 204 26.9247 204 32.9999C204 39.075 199.075 43.9999 193 43.9999Z" fill="#0A2F5E"/>
<path fill-rule="evenodd" clip-rule="evenodd" d="M136 87.9999H219C212.925 87.9999 208 83.075 208 76.9999C208 70.9247 212.925 65.9999 219 65.9999H136C142.075 65.9999 147 70.9247 147 76.9999C147 83.075 142.075 87.9999 136 87.9999Z" fill="#0A2F5E"/>
<rect x="58" y="44" width="397" height="22" rx="11" fill="#0A2F5E"/>
<rect y="87.9999" width="428" height="22" rx="11" fill="#0A2F5E"/>
</svg>
