<svg width="504" height="198" viewBox="0 0 504 198" fill="none" xmlns="http://www.w3.org/2000/svg">
<rect x="354" y="198" width="181" height="22" rx="11" transform="rotate(-180 354 198)" fill="#0A2F5E"/>
<path fill-rule="evenodd" clip-rule="evenodd" d="M261 66H114C120.075 66 125 70.9249 125 77C125 83.0751 120.075 88 114 88H261C254.925 88 250 83.0751 250 77C250 70.9249 254.925 66 261 66Z" fill="#0A2F5E"/>
<rect x="173" y="22" width="59" height="22" rx="11" transform="rotate(-180 173 22)" fill="#0A2F5E"/>
<rect x="399" y="198" width="22" height="22" rx="11" transform="rotate(-180 399 198)" fill="#0A2F5E"/>
<rect x="466" y="22" width="252" height="22" rx="11" transform="rotate(-180 466 22)" fill="#0A2F5E"/>
<path fill-rule="evenodd" clip-rule="evenodd" d="M244 22H311C304.925 22 300 26.9249 300 33C300 39.0751 304.925 44 311 44H244C250.075 44 255 39.0751 255 33C255 26.9249 250.075 22 244 22Z" fill="#0A2F5E"/>
<rect x="354" y="66.0001" width="354" height="22" rx="11" transform="rotate(-180 354 66.0001)" fill="#0A2F5E"/>
<path fill-rule="evenodd" clip-rule="evenodd" d="M311 154H228C234.075 154 239 158.925 239 165C239 171.075 234.075 176 228 176H311C304.925 176 300 171.075 300 165C300 158.925 304.925 154 311 154Z" fill="#0A2F5E"/>
<path fill-rule="evenodd" clip-rule="evenodd" d="M368 110H285C291.075 110 296 114.925 296 121C296 127.075 291.075 132 285 132H368C361.925 132 357 127.075 357 121C357 114.925 361.925 110 368 110Z" fill="#0A2F5E"/>
<rect x="446" y="154" width="397" height="22" rx="11" transform="rotate(-180 446 154)" fill="#0A2F5E"/>
<rect x="504" y="110" width="428" height="22" rx="11" transform="rotate(-180 504 110)" fill="#0A2F5E"/>
</svg>
