<svg width="504" height="198" viewBox="0 0 504 198" fill="none" xmlns="http://www.w3.org/2000/svg">
<rect width="181" height="22" rx="11" transform="matrix(1 0 0 -1 150 198)" fill="#0A2F5E"/>
<path fill-rule="evenodd" clip-rule="evenodd" d="M243 66H390C383.925 66 379 70.9249 379 77C379 83.0751 383.925 88 390 88H243C249.075 88 254 83.0751 254 77C254 70.9249 249.075 66 243 66Z" fill="#0A2F5E"/>
<rect width="59" height="22" rx="11" transform="matrix(1 0 0 -1 331 22)" fill="#0A2F5E"/>
<rect width="22" height="22" rx="11" transform="matrix(1 0 0 -1 105 198)" fill="#0A2F5E"/>
<rect width="252" height="22" rx="11" transform="matrix(1 0 0 -1 38 22)" fill="#0A2F5E"/>
<path fill-rule="evenodd" clip-rule="evenodd" d="M260 22H193C199.075 22 204 26.9249 204 33C204 39.0751 199.075 44 193 44H260C253.925 44 249 39.0751 249 33C249 26.9249 253.925 22 260 22Z" fill="#0A2F5E"/>
<rect width="354" height="22" rx="11" transform="matrix(1 0 0 -1 150 66.0001)" fill="#0A2F5E"/>
<path fill-rule="evenodd" clip-rule="evenodd" d="M193 154H276C269.925 154 265 158.925 265 165C265 171.075 269.925 176 276 176H193C199.075 176 204 171.075 204 165C204 158.925 199.075 154 193 154Z" fill="#0A2F5E"/>
<path fill-rule="evenodd" clip-rule="evenodd" d="M136 110H219C212.925 110 208 114.925 208 121C208 127.075 212.925 132 219 132H136C142.075 132 147 127.075 147 121C147 114.925 142.075 110 136 110Z" fill="#0A2F5E"/>
<rect width="397" height="22" rx="11" transform="matrix(1 0 0 -1 58 154)" fill="#0A2F5E"/>
<rect width="428" height="22" rx="11" transform="matrix(1 0 0 -1 0 110)" fill="#0A2F5E"/>
</svg>
